<svg id="Layer_1" viewBox="0 0 512 512" xmlns="http://www.w3.org/2000/svg" data-name="Layer 1"><path d="m455.074 388.109v-351.356c0-15.854-12.898-28.753-28.753-28.753h-329.077c-22.231 0-40.318 18.087-40.318 40.318v391.155c0 25.686 20.897 46.583 46.583 46.583h51.412v5.943c0 4.281 2.28 8.237 5.984 10.383 3.705 2.146 8.271 2.156 11.984.027l25.323-14.52 25.296 14.517c1.85 1.062 3.912 1.592 5.973 1.592 2.077 0 4.154-.539 6.014-1.616 3.705-2.146 5.986-6.103 5.986-10.384v-5.943h201.592c6.627 0 12-5.373 12-12s-5.373-12-12-12h-10.811c-3.688-5.532-5.89-13.78-5.89-22.597 0-9.219 2.407-17.817 6.404-23.337 12.755-2.939 22.297-14.379 22.297-28.013z" fill="#8bb6ef"/><path d="m397.907 322.639-38.042-65.906c-.368-.638-.797-1.231-1.269-1.784l.006-.005-14.247-16.703c-.631.663-1.271 1.319-1.921 1.968-14.201 14.201-31.608 24.028-50.585 28.81l7.228 20.302.008-.003c.24.673.534 1.336.904 1.977l38.041 65.906s.002.003.003.005c4.606 7.971 12.061 13.678 20.992 16.069 2.989.8 6.021 1.196 9.031 1.196 5.867 0 11.65-1.505 16.873-4.453 7.84-4.031 13.583-11.016 16.191-19.708 2.776-9.248 1.603-19.335-3.214-27.672z" fill="#d08372"/><path d="m432.777 416.122c-2.077.478-4.236.74-6.456.74h-322.812c-11.487 0-20.992 8.635-22.397 19.761v5.697c1.405 11.112 10.91 19.736 22.397 19.736h328.754c-3.688-5.532-5.89-13.78-5.89-22.597 0-9.219 2.407-17.817 6.404-23.337z" fill="#b2e7f1"/><path d="m264.854 272.351c-.038 0-.069 0-.105 0-29.315 0-56.873-11.413-77.604-32.14-20.743-20.739-32.167-48.318-32.167-77.656 0-60.557 49.267-109.824 109.824-109.824s109.796 49.267 109.796 109.824c0 29.336-11.422 56.915-32.163 77.655s-48.28 32.14-77.581 32.141zm-.059-24h.059c22.892 0 44.416-8.917 60.61-25.112 16.208-16.208 25.133-37.759 25.133-60.684 0-47.324-38.488-85.824-85.796-85.824s-85.824 38.5-85.824 85.824c0 22.926 8.927 44.478 25.136 60.683 16.198 16.194 37.733 25.113 60.636 25.113z" fill="#6280cc"/><path d="m264.798 76.731c-47.322 0-85.821 38.499-85.821 85.821 0 22.926 8.927 44.477 25.137 60.683 16.2 16.197 37.735 25.116 60.643 25.116h.082c22.897-.001 44.428-8.92 60.625-25.116 16.207-16.207 25.133-37.758 25.133-60.683 0-47.322-38.489-85.821-85.799-85.821z" fill="#b2e7f1"/><path d="m264.798 76.731c-27.22 0-51.503 12.754-67.237 32.582 15.521-15.401 36.873-24.933 60.413-24.933 47.31 0 85.799 38.499 85.799 85.821 0 19.572-6.526 38.13-18.514 53.229.067-.067.138-.128.205-.195 16.207-16.207 25.133-37.758 25.133-60.683 0-47.322-38.489-85.821-85.799-85.821z" fill="#95cde6"/><path d="m358.603 254.945-14.247-16.703c-.631.663-1.271 1.319-1.921 1.968-14.201 14.201-31.608 24.028-50.585 28.81l7.228 20.302.008-.003c.24.673.534 1.336.904 1.977l59.876-34.562c-.368-.638-.797-1.231-1.269-1.784z" fill="#b2e7f1"/><g fill="#fff"><path d="m315.996 174.555h-102.417c-6.627 0-12-5.373-12-12s5.373-12 12-12h102.417c6.627 0 12 5.373 12 12s-5.373 12-12 12z"/><path d="m315.996 206.559h-102.417c-6.627 0-12-5.373-12-12s5.373-12 12-12h102.417c6.627 0 12 5.373 12 12s-5.373 12-12 12z"/><path d="m272.795 142.552h-59.216c-6.627 0-12-5.373-12-12s5.373-12 12-12h59.216c6.627 0 12 5.373 12 12s-5.373 12-12 12z"/></g><path d="m126.508 462.057h-22.999c-12.452 0-22.583-10.131-22.583-22.583s10.131-22.611 22.583-22.611h22.999v-408.863h-29.263c-22.231 0-40.318 18.087-40.318 40.318v391.155c0 25.686 20.897 46.583 46.583 46.583h22.999v-24z" fill="#68a0dd"/><path d="m154.921 439.474v52.526c0 4.281 2.28 8.237 5.984 10.383 3.705 2.146 8.271 2.156 11.984.027l25.323-14.52 25.296 14.517c1.85 1.062 3.912 1.592 5.973 1.592 2.077 0 4.154-.539 6.014-1.616 3.705-2.146 5.986-6.103 5.986-10.384v-52.526h-86.561z" fill="#ef7c85"/><path d="m154.921 439.474h86.561v12h186.327c-.928-3.72-1.436-7.8-1.436-12.014s.505-8.274 1.429-11.986h-313.294c-6.627 0-12 5.373-12 12s5.373 12 12 12h40.413z" fill="#95cde6"/><path d="m227.541 439.474v48.644c0 4.282-2.281 8.239-5.986 10.384-.893.518-1.839.903-2.809 1.172l4.763 2.733c1.85 1.062 3.912 1.592 5.973 1.592 2.077 0 4.154-.539 6.014-1.616 3.705-2.146 5.986-6.103 5.986-10.384v-52.526h-13.941z" fill="#e06877"/><path d="m397.907 322.639-38.042-65.906-15.065 8.696s.004.006.006.01l38.042 65.906c4.817 8.337 5.99 18.425 3.214 27.672-1.639 5.46-4.515 10.245-8.37 14.048 2.494-.734 4.923-1.74 7.238-3.047 7.84-4.031 13.583-11.016 16.191-19.708 2.776-9.248 1.603-19.335-3.214-27.672z" fill="#ba746a"/><path d="m358.603 254.945-14.247-16.703c-.631.663-1.271 1.319-1.921 1.968-3.419 3.419-7.028 6.58-10.797 9.483l11.906 13.958-.006.005c.469.55.895 1.14 1.262 1.774l15.065-8.696c-.368-.638-.797-1.231-1.269-1.784l.006-.005z" fill="#95cde6"/></svg>