<svg id="Capa_1" enable-background="new 0 0 512 512" height="512" viewBox="0 0 512 512" width="512" xmlns="http://www.w3.org/2000/svg"><g><path d="m256 22c-122.451 0-223.915 89.833-242.095 207.191l.938.476 48.668-48.669c1.7-1.7 3.96-2.636 6.364-2.636s4.664.936 6.364 2.636l23.81 23.81c3.509 3.51 3.509 9.219 0 12.729l-59.907 59.907c-4.532 4.532-10.559 7.028-16.969 7.028-3.711 0-7.4-.866-10.703-2.511l-.963.63c8.044 128.043 114.422 229.409 244.493 229.409 135.31 0 245-109.69 245-245s-109.69-245-245-245z" fill="#c4e2ff"/><g><g><g><g><path d="m475.706 190.993h-17.206v224.781c0 2.48-2.018 4.497-4.497 4.497h-396.006c-2.479 0-4.497-2.017-4.497-4.497v-224.781h-17.206c-2.924 0-5.294 2.37-5.294 5.294v242.133c0 2.924 2.37 5.294 5.294 5.294h439.412c2.924 0 5.294-2.37 5.294-5.294v-242.133c0-2.924-2.37-5.294-5.294-5.294z" fill="#26a6fe"/></g></g><g><path d="m79 438.42v-18.149h-21.003c-2.479 0-4.497-2.017-4.497-4.497v-224.781h-17.206c-2.924 0-5.294 2.37-5.294 5.294v242.133c0 2.924 2.37 5.294 5.294 5.294h48c-2.924 0-5.294-2.37-5.294-5.294z" fill="#0593fc"/></g><path d="m273 420.25v53.934c0 1.495 1.708 2.348 2.903 1.449l16.963-12.753c.968-.728 2.301-.728 3.269 0l16.963 12.753c1.195.898 2.903.046 2.903-1.449v-53.934z" fill="#fe5694"/><path d="m273 420.25v53.934c0 1.495 1.708 2.348 2.903 1.449l13.097-9.847v-45.536z" fill="#fd3581"/><g><path d="m256.978 207.174-.978-3.462c0-16.624-13.476-30.1-30.1-30.1h-167.903c-3.024 0-5.475 2.451-5.475 5.475v236.687c0 3.024 2.451 5.475 5.475 5.475h198.003l.978-3.337z" fill="#fff"/></g><g><path d="m76 415.774v-236.687c0-3.024 2.451-5.475 5.475-5.475h-23.478c-3.024 0-5.475 2.451-5.475 5.475v236.687c0 3.024 2.451 5.475 5.475 5.475h23.478c-3.024.001-5.475-2.451-5.475-5.475z" fill="#eaf6ff"/></g><g><g><path d="m454.003 421.25h-198.003v-217.538c0-16.624 13.476-30.1 30.1-30.1h167.903c3.024 0 5.475 2.451 5.475 5.475v236.687c0 3.024-2.451 5.476-5.475 5.476z" fill="#eaf6ff"/></g></g><g><path d="m309.579 173.612h-23.479c-16.624 0-30.1 13.476-30.1 30.1v217.538h23.478v-217.538c0-16.624 13.477-30.1 30.101-30.1z" fill="#d8ecfe"/></g></g><g><g><path d="m414.438 227.488h-102.25c-4.143 0-7.5-3.357-7.5-7.5s3.357-7.5 7.5-7.5h102.25c4.143 0 7.5 3.357 7.5 7.5s-3.358 7.5-7.5 7.5z" fill="#8ac9fe"/></g><g><path d="m414.438 266.897h-102.25c-4.143 0-7.5-3.357-7.5-7.5s3.357-7.5 7.5-7.5h102.25c4.143 0 7.5 3.357 7.5 7.5s-3.358 7.5-7.5 7.5z" fill="#8ac9fe"/></g><g><path d="m414.438 306.306h-25.562c-4.143 0-7.5-3.357-7.5-7.5s3.357-7.5 7.5-7.5h25.562c4.143 0 7.5 3.357 7.5 7.5s-3.358 7.5-7.5 7.5z" fill="#8ac9fe"/></g><g><path d="m359.052 306.306h-46.864c-4.143 0-7.5-3.357-7.5-7.5s3.357-7.5 7.5-7.5h46.864c4.143 0 7.5 3.357 7.5 7.5s-3.358 7.5-7.5 7.5z" fill="#8ac9fe"/></g><g><path d="m414.438 345.715h-102.25c-4.143 0-7.5-3.357-7.5-7.5s3.357-7.5 7.5-7.5h102.25c4.143 0 7.5 3.357 7.5 7.5s-3.358 7.5-7.5 7.5z" fill="#8ac9fe"/></g><g><path d="m364.732 385.124h-52.545c-4.143 0-7.5-3.357-7.5-7.5s3.357-7.5 7.5-7.5h52.545c4.143 0 7.5 3.357 7.5 7.5s-3.357 7.5-7.5 7.5z" fill="#8ac9fe"/></g></g><g><g><path d="m211.357 385.124h-102.25c-4.142 0-7.5-3.357-7.5-7.5s3.358-7.5 7.5-7.5h102.25c4.142 0 7.5 3.357 7.5 7.5s-3.357 7.5-7.5 7.5z" fill="#8ac9fe"/></g><g><path d="m211.357 345.715h-46.864c-4.142 0-7.5-3.357-7.5-7.5s3.358-7.5 7.5-7.5h46.864c4.142 0 7.5 3.357 7.5 7.5s-3.357 7.5-7.5 7.5z" fill="#8ac9fe"/></g><g><path d="m134.67 345.715h-25.562c-4.142 0-7.5-3.357-7.5-7.5s3.358-7.5 7.5-7.5h25.562c4.142 0 7.5 3.357 7.5 7.5s-3.358 7.5-7.5 7.5z" fill="#8ac9fe"/></g><g><path d="m211.357 306.306h-102.25c-4.142 0-7.5-3.357-7.5-7.5s3.358-7.5 7.5-7.5h102.25c4.142 0 7.5 3.357 7.5 7.5s-3.357 7.5-7.5 7.5z" fill="#8ac9fe"/></g><g><path d="m211.357 266.897h-102.25c-4.142 0-7.5-3.357-7.5-7.5s3.358-7.5 7.5-7.5h102.25c4.142 0 7.5 3.357 7.5 7.5s-3.357 7.5-7.5 7.5z" fill="#8ac9fe"/></g><g><path d="m161.653 227.488h-52.545c-4.142 0-7.5-3.357-7.5-7.5s3.358-7.5 7.5-7.5h52.545c4.142 0 7.5 3.357 7.5 7.5s-3.358 7.5-7.5 7.5z" fill="#8ac9fe"/></g></g></g><g><g><path d="m111.946 169.103c-4.563-4.563-8.565-9.474-12.044-14.636l-25.265 25.265c.573.359 1.113.777 1.603 1.267l23.81 23.81c.494.494.911 1.035 1.266 1.605l25.247-25.247c-5.194-3.51-10.09-7.537-14.617-12.064z" fill="#c5d3dd"/></g><g><path d="m111.946 169.103c-4.563-4.563-8.565-9.474-12.044-14.636l-25.265 25.265c.573.359 1.113.777 1.603 1.267l12.713 12.713 23.81-23.81c-.272-.268-.547-.53-.817-.799z" fill="#9facba"/></g><path d="m76.947 180.291c-3.905-3.905-10.237-3.905-14.142 0l-48.9 48.9c-1.909 12.324-2.905 24.95-2.905 37.809 0 5.239.184 10.434.508 15.591 9.44 4.982 21.399 3.503 29.342-4.441l59.907-59.907c3.905-3.905 3.905-10.237 0-14.142z" fill="#7a8c98"/><path d="m62.805 205.82c3.905-3.905 10.237-3.905 14.142 0l18.117 18.117 5.693-5.693c3.905-3.905 3.905-10.237 0-14.142l-23.81-23.81c-3.905-3.905-10.237-3.905-14.142 0l-48.9 48.9c-1.434 9.256-2.352 18.682-2.721 28.249z" fill="#596c76"/><g><g><circle cx="181.596" cy="99.452" fill="#fff" r="87"/></g><path d="m160.482 160.971c-33.976-33.976-33.976-89.061 0-123.037 11.811-11.811 26.176-19.506 41.316-23.105-28.41-6.754-59.556.941-81.72 23.105-33.976 33.976-33.976 89.061 0 123.037 22.164 22.164 53.31 29.859 81.72 23.105-15.14-3.6-29.505-11.294-41.316-23.105z" fill="#eaf6ff"/><g><path d="m181.596 198.906c-25.48 0-50.96-9.699-70.357-29.097-38.795-38.795-38.795-101.919 0-140.714 38.795-38.794 101.92-38.794 140.714 0 38.795 38.795 38.795 101.919 0 140.714-19.397 19.398-44.877 29.097-70.357 29.097zm0-173.919c-19.078 0-38.156 7.263-52.68 21.786-29.047 29.048-29.047 76.311 0 105.358 29.048 29.047 76.311 29.048 105.359 0 29.047-29.048 29.047-76.311 0-105.358-14.523-14.523-33.601-21.786-52.679-21.786z" fill="#978ecb"/></g><g><path d="m145.189 169.809c-3.97-3.97-7.526-8.198-10.684-12.625-1.927-1.574-3.793-3.257-5.589-5.053-29.047-29.048-29.047-76.311 0-105.358 1.796-1.796 3.663-3.479 5.589-5.053 3.157-4.427 6.714-8.655 10.684-12.625 15.073-15.072 33.819-24.285 53.383-27.645-30.791-5.289-63.61 3.924-87.333 27.646-38.795 38.795-38.795 101.919 0 140.714 19.397 19.397 44.877 29.097 70.357 29.097 5.681 0 11.362-.485 16.975-1.45-19.563-3.362-38.309-12.575-53.382-27.648z" fill="#8379c1"/></g></g><g><g><path d="m219.043 125.278-30.607-68c-1.211-2.691-3.888-4.422-6.839-4.422s-5.628 1.73-6.839 4.422l-30.607 68c-1.7 3.777-.017 8.217 3.76 9.917 3.778 1.701 8.218.018 9.917-3.761l8.552-19h30.433l8.552 19c1.25 2.778 3.983 4.424 6.844 4.424 1.029 0 2.075-.213 3.074-.663 3.776-1.7 5.46-6.139 3.76-9.917zm-45.912-27.843 8.465-18.806 8.465 18.806z" fill="#60b7ff"/></g></g></g><path d="m484 73.751h-176c-2.761 0-5 2.239-5 5v56c0 2.761 2.239 5 5 5h39.392l10.248 17.749c1.155 2 4.041 2 5.196 0l10.248-17.749h110.916c2.761 0 5-2.239 5-5v-56c0-2.762-2.239-5-5-5z" fill="#fe5694"/><g><g><path d="m334 134.751v-56c0-2.761 2.239-5 5-5h-31c-2.761 0-5 2.239-5 5v56c0 2.761 2.239 5 5 5h31c-2.761 0-5-2.239-5-5z" fill="#fd3581"/></g></g><g><path d="m465 114.251h-132c-4.143 0-7.5-3.357-7.5-7.5s3.357-7.5 7.5-7.5h132c4.143 0 7.5 3.357 7.5 7.5s-3.357 7.5-7.5 7.5z" fill="#fff"/></g></g></svg>